<?xml version="1.0" encoding="UTF-8"?> <!-- Generator: Adobe Illustrator 23.0.2, SVG Export Plug-In . SVG Version: 6.00 Build 0) --> <svg xmlns="http://www.w3.org/2000/svg" xmlns:xlink="http://www.w3.org/1999/xlink" version="1.1" id="Layer_1" x="0px" y="0px" viewBox="0 0 713.8 181.5" style="enable-background:new 0 0 713.8 181.5;" xml:space="preserve" width="250" height="65"> <style type="text/css"> .st0{fill:#EC1C24;} .st1{fill:#FFFFFF;} </style> <g> <rect x="553.6" y="0.4" class="st0" width="160.2" height="60"></rect> <g> <path class="st1" d="M111.6,168.1c-4.1,0-7.3-1.5-9.6-4.6c-2.3-3.1-3.4-6.8-3.4-11.1c0-4.4,1.1-8.1,3.4-11.1 c2.3-3,5.6-4.4,9.8-4.4c4.3,0,7.5,1.6,9.7,4.7c2.2,3.2,3.3,6.8,3.3,10.8c0,4.4-1.1,8.1-3.4,11.1 C119.2,166.5,115.9,168.1,111.6,168.1z M111.8,142.6c-3.8,0-5.7,3.3-5.7,9.8c0,6.6,1.9,9.8,5.7,9.8c3.7,0,5.5-3.3,5.5-9.8 C117.3,145.9,115.5,142.6,111.8,142.6z"></path> <path class="st1" d="M149,167.6h-6.7V155c0-1.5-0.1-2.6-0.2-3.1c-0.1-0.6-0.4-1-0.9-1.4s-1.1-0.6-1.8-0.6c-2.4,0-3.5,1.7-3.5,5.1 v12.6h-6.7v-22.4h6.2v3.8c1-1.8,2.1-3,3.1-3.5c1-0.5,2.1-0.8,3.3-0.8c2.2,0,3.9,0.6,5.2,1.7c1.3,1.1,2,3.4,2,6.8V167.6z"></path> <path class="st1" d="M175,157.5h-14.6c0,0.4,0,0.7,0,1c0,1.6,0.4,2.8,1.3,3.6s1.9,1.2,3.1,1.2c2.2,0,3.6-1.2,4-3.5l6.1,0.4 c-1.7,5.2-5.1,7.8-10.3,7.8c-2.3,0-4.2-0.4-5.8-1.3c-1.6-0.9-2.9-2.2-3.9-3.9c-1-1.7-1.5-3.8-1.5-6.2c0-3.6,1-6.4,3.1-8.6 c2.1-2.2,4.7-3.3,8-3.3c2.9,0,5.4,1,7.5,3.1S175,153,175,157.5z M160.3,153.7h8.1c-0.2-3.1-1.5-4.6-3.9-4.6 C162,149,160.6,150.6,160.3,153.7z"></path> <path class="st1" d="M177,153.7h10.8v4.8H177V153.7z"></path> <path class="st1" d="M212.6,144l-6.1,2c-0.8-2.4-2.6-3.6-5.2-3.6c-2.8,0-4.3,0.9-4.3,2.7c0,0.7,0.3,1.3,0.8,1.8s1.7,0.9,3.6,1.3 c3.1,0.6,5.4,1.3,6.9,1.9s2.7,1.7,3.7,3.1c1,1.4,1.5,3,1.5,4.7c0,2.7-1.1,5.1-3.2,7.1s-5.3,3-9.5,3c-3.2,0-5.8-0.7-8-2.1 c-2.2-1.4-3.7-3.5-4.4-6.3l6.7-1.5c0.7,2.8,2.8,4.2,6.2,4.2c1.6,0,2.9-0.3,3.7-0.9c0.8-0.6,1.2-1.4,1.2-2.3c0-0.9-0.4-1.6-1.1-2.1 c-0.7-0.5-2.2-0.9-4.3-1.4c-3.9-0.8-6.7-1.9-8.4-3.3s-2.5-3.4-2.5-6.1c0-2.7,1-5,3-6.8c2-1.8,4.7-2.8,8.1-2.8 C207,136.8,210.9,139.2,212.6,144z"></path> <path class="st1" d="M225.1,150.3v9.5c0,1.2,0.2,2,0.5,2.4s1.2,0.6,2.5,0.6c0.6,0,1.3,0,2.1-0.1v4.9c-2,0.3-3.4,0.5-4.2,0.5 c-2.8,0-4.8-0.5-5.9-1.6c-1.2-1.1-1.8-3-1.8-5.7v-10.4h-3.6v-5.1h4l0.5-6.6l5.8-0.4v7.1h4.9v5.1H225.1z"></path> <path class="st1" d="M243,144.7c3.5,0,6.2,1.1,8.1,3.4c1.9,2.2,2.9,5,2.9,8.4c0,3.3-1,6.1-3,8.3c-2,2.2-4.7,3.3-8,3.3 c-3.2,0-5.8-1.1-7.8-3.3c-1.9-2.2-2.9-5-2.9-8.4c0-2.4,0.4-4.4,1.3-6.1c0.9-1.7,2.1-3,3.6-4S240.7,144.7,243,144.7z M243.2,149 c-1.3,0-2.2,0.5-2.9,1.5c-0.6,1-1,2.9-1,5.8c0,2.6,0.3,4.5,0.9,5.7c0.6,1.2,1.6,1.7,2.9,1.7c1.1,0,2.1-0.5,2.8-1.5 s1.1-2.9,1.1-5.6c0-2.9-0.3-4.9-0.9-6C245.4,149.6,244.5,149,243.2,149z"></path> <path class="st1" d="M258.3,175.2v-30h6.2v3.3c1.1-2.5,3.1-3.7,6-3.7c2.5,0,4.5,1,6,2.9c1.6,1.9,2.4,4.8,2.4,8.5 c0,3.9-0.8,6.9-2.4,8.9c-1.6,2-3.6,3-6.2,3c-2.6,0-4.4-1-5.5-3v10H258.3z M264.8,157.8c0,1.6,0.1,2.7,0.3,3.3 c0.2,0.6,0.6,1.2,1.2,1.6c0.6,0.5,1.3,0.7,2,0.7c0.9,0,1.7-0.5,2.5-1.4c0.7-0.9,1.1-3,1.1-6.1c0-4.4-1.2-6.6-3.6-6.6 c-0.9,0-1.7,0.4-2.5,1.2c-0.7,0.8-1.1,2.1-1.1,4V157.8z"></path> <path class="st1" d="M314.5,137.3v6h-7.6v24.3h-7.3v-24.3h-7.7v-6H314.5z"></path> <path class="st1" d="M324.3,144.7c3.5,0,6.2,1.1,8.1,3.4c1.9,2.2,2.9,5,2.9,8.4c0,3.3-1,6.1-3,8.3c-2,2.2-4.7,3.3-8,3.3 c-3.2,0-5.8-1.1-7.8-3.3c-1.9-2.2-2.9-5-2.9-8.4c0-2.4,0.4-4.4,1.3-6.1c0.9-1.7,2.1-3,3.6-4S322,144.7,324.3,144.7z M324.5,149 c-1.3,0-2.2,0.5-2.9,1.5c-0.6,1-1,2.9-1,5.8c0,2.6,0.3,4.5,0.9,5.7c0.6,1.2,1.6,1.7,2.9,1.7c1.1,0,2.1-0.5,2.8-1.5 s1.1-2.9,1.1-5.6c0-2.9-0.3-4.9-0.9-6C326.7,149.6,325.8,149,324.5,149z"></path> <path class="st1" d="M349,144.7c3.5,0,6.2,1.1,8.1,3.4c1.9,2.2,2.9,5,2.9,8.4c0,3.3-1,6.1-3,8.3c-2,2.2-4.7,3.3-8,3.3 c-3.2,0-5.8-1.1-7.8-3.3c-1.9-2.2-2.9-5-2.9-8.4c0-2.4,0.4-4.4,1.3-6.1c0.9-1.7,2.1-3,3.6-4S346.6,144.7,349,144.7z M349.2,149 c-1.3,0-2.2,0.5-2.9,1.5c-0.6,1-1,2.9-1,5.8c0,2.6,0.3,4.5,0.9,5.7c0.6,1.2,1.6,1.7,2.9,1.7c1.1,0,2.1-0.5,2.8-1.5 s1.1-2.9,1.1-5.6c0-2.9-0.3-4.9-0.9-6C351.4,149.6,350.4,149,349.2,149z"></path> <path class="st1" d="M364.2,167.6v-30.3h6.7v30.3H364.2z"></path> <path class="st1" d="M393.5,150.6l-4.9,1.3c-0.6-2-2-3-4.4-3c-2.3,0-3.4,0.7-3.4,2c0,0.5,0.2,1,0.6,1.3c0.4,0.3,1.5,0.6,3.2,0.8 c2.6,0.3,4.5,0.7,5.8,1.2c1.2,0.4,2.2,1.2,3,2.2c0.7,1.1,1.1,2.3,1.1,3.9c0,2.3-0.9,4.2-2.7,5.6s-4.3,2.2-7.5,2.2 c-5.8,0-9.3-2.2-10.4-6.6l5.7-0.8c0.5,2,2.1,3,5,3c1.1,0,2-0.2,2.8-0.6c0.8-0.4,1.1-0.9,1.1-1.6c0-1-0.8-1.7-2.5-1.8 c-4.6-0.6-7.6-1.4-9.1-2.6c-1.4-1.2-2.2-2.8-2.2-4.9c0-2.1,0.8-3.9,2.5-5.3c1.7-1.4,4-2.1,7.1-2.1c2.4,0,4.3,0.5,5.8,1.4 S392.7,148.5,393.5,150.6z"></path> <path class="st1" d="M431.4,144l-6.1,2c-0.8-2.4-2.6-3.6-5.2-3.6c-2.8,0-4.3,0.9-4.3,2.7c0,0.7,0.3,1.3,0.8,1.8s1.7,0.9,3.6,1.3 c3.1,0.6,5.4,1.3,6.9,1.9s2.7,1.7,3.7,3.1c1,1.4,1.5,3,1.5,4.7c0,2.7-1.1,5.1-3.2,7.1s-5.3,3-9.5,3c-3.2,0-5.8-0.7-8-2.1 c-2.2-1.4-3.7-3.5-4.4-6.3l6.7-1.5c0.7,2.8,2.8,4.2,6.2,4.2c1.6,0,2.9-0.3,3.7-0.9c0.8-0.6,1.2-1.4,1.2-2.3c0-0.9-0.4-1.6-1.1-2.1 c-0.7-0.5-2.2-0.9-4.3-1.4c-3.9-0.8-6.7-1.9-8.4-3.3s-2.5-3.4-2.5-6.1c0-2.7,1-5,3-6.8c2-1.8,4.7-2.8,8.1-2.8 C425.8,136.8,429.7,139.2,431.4,144z"></path> <path class="st1" d="M443.9,150.3v9.5c0,1.2,0.2,2,0.5,2.4s1.2,0.6,2.5,0.6c0.6,0,1.3,0,2.1-0.1v4.9c-2,0.3-3.4,0.5-4.2,0.5 c-2.8,0-4.8-0.5-5.9-1.6c-1.2-1.1-1.8-3-1.8-5.7v-10.4h-3.6v-5.1h4l0.5-6.6l5.8-0.4v7.1h4.9v5.1H443.9z"></path> <path class="st1" d="M472.8,167.6h-6.5c-0.2-0.9-0.3-2.1-0.3-3.5c-1.1,1.6-2.3,2.7-3.4,3.2c-1.1,0.5-2.4,0.8-3.9,0.8 c-2.1,0-3.8-0.6-5.2-1.7c-1.3-1.1-2-2.7-2-4.6c0-1.4,0.4-2.7,1.1-3.9c0.8-1.2,2-2.1,3.7-2.8c1.7-0.7,4.8-1.2,9.3-1.5v-1.3 c0-2.2-1.1-3.3-3.3-3.3c-2.4,0-3.7,1.1-3.9,3.3l-6.2-0.6c0.4-2.5,1.6-4.3,3.7-5.4c2-1.1,4.4-1.6,6.9-1.6c1.5,0,3,0.2,4.4,0.5 c1.4,0.4,2.4,0.9,3.2,1.6s1.3,1.5,1.6,2.3c0.3,0.8,0.4,2.2,0.4,4.1v10.2C472.4,165.4,472.5,166.7,472.8,167.6z M465.6,156.9 c-4.7,0.5-7,1.9-7,4.2c0,0.8,0.2,1.5,0.7,2s1.2,0.9,2.1,0.9c1.2,0,2.2-0.5,3-1.5s1.2-2.2,1.2-3.6V156.9z"></path> <path class="st1" d="M485.5,150.3v9.5c0,1.2,0.2,2,0.5,2.4c0.4,0.4,1.2,0.6,2.5,0.6c0.6,0,1.3,0,2.1-0.1v4.9 c-2,0.3-3.4,0.5-4.2,0.5c-2.8,0-4.8-0.5-5.9-1.6s-1.8-3-1.8-5.7v-10.4h-3.6v-5.1h4l0.5-6.6l5.8-0.4v7.1h4.9v5.1H485.5z"></path> <path class="st1" d="M500.8,136.7v6.6h-6.7v-6.6H500.8z M500.8,145.2v22.4h-6.7v-22.4H500.8z"></path> <path class="st1" d="M515.8,144.7c3.5,0,6.2,1.1,8.1,3.4c1.9,2.2,2.9,5,2.9,8.4c0,3.3-1,6.1-3,8.3c-2,2.2-4.7,3.3-8,3.3 c-3.2,0-5.8-1.1-7.8-3.3c-1.9-2.2-2.9-5-2.9-8.4c0-2.4,0.4-4.4,1.3-6.1c0.9-1.7,2.1-3,3.6-4C511.5,145.2,513.4,144.7,515.8,144.7z M515.9,149c-1.3,0-2.2,0.5-2.9,1.5c-0.6,1-1,2.9-1,5.8c0,2.6,0.3,4.5,0.9,5.7c0.6,1.2,1.6,1.7,2.9,1.7c1.1,0,2.1-0.5,2.8-1.5 c0.7-1,1.1-2.9,1.1-5.6c0-2.9-0.3-4.9-0.9-6C518.2,149.6,517.2,149,515.9,149z"></path> <path class="st1" d="M550.8,167.6h-6.7V155c0-1.5-0.1-2.6-0.2-3.1c-0.1-0.6-0.4-1-0.9-1.4c-0.5-0.4-1.1-0.6-1.8-0.6 c-2.4,0-3.5,1.7-3.5,5.1v12.6H531v-22.4h6.2v3.8c1-1.8,2.1-3,3.1-3.5s2.1-0.8,3.3-0.8c2.2,0,3.9,0.6,5.2,1.7s2,3.4,2,6.8V167.6z"></path> </g> <g> <path class="st1" d="M579.4,7.8c2,1.2,3.6,2.9,4.7,5.1c1.1,2.2,1.7,4.7,1.7,7.6v16.8c0,3.4-0.8,6.3-2.4,8.7 c-1.6,2.4-3.8,4-6.6,4.9c-0.2,0-0.2,0.1-0.2,0.3v5.3c0,0.2-0.1,0.4-0.2,0.5c-0.1,0.1-0.3,0.2-0.5,0.2H569c-0.2,0-0.4-0.1-0.5-0.2 c-0.1-0.1-0.2-0.3-0.2-0.5v-5.3c0-0.2-0.1-0.3-0.2-0.3c-2.8-0.8-4.9-2.5-6.5-4.9c-1.6-2.4-2.4-5.3-2.4-8.7V20.5 c0-2.9,0.6-5.4,1.7-7.6c1.1-2.2,2.7-3.9,4.7-5.1c2-1.2,4.3-1.8,7-1.8C575,6,577.4,6.6,579.4,7.8z M577.5,19.8 c0-1.8-0.5-3.3-1.4-4.4c-0.9-1.1-2.2-1.7-3.7-1.7c-1.5,0-2.7,0.6-3.6,1.7c-0.9,1.1-1.4,2.6-1.4,4.4v17.9c0,1.8,0.5,3.3,1.4,4.4 c0.9,1.1,2.1,1.7,3.6,1.7c1.5,0,2.8-0.6,3.7-1.7c0.9-1.1,1.4-2.6,1.4-4.4V19.8z"></path> <path class="st1" d="M611.4,50.3l-1.4-6.2c0-0.2-0.1-0.3-0.3-0.3h-11.1c-0.2,0-0.3,0.1-0.3,0.3l-1.4,6.2c-0.1,0.4-0.4,0.6-0.8,0.6 h-7.2c-0.5,0-0.7-0.3-0.6-0.8l10.6-43c0.1-0.4,0.4-0.6,0.8-0.6h8.6c0.4,0,0.7,0.2,0.8,0.6l10.6,43l0.1,0.3c0,0.4-0.2,0.6-0.7,0.6 h-7.2C611.8,51,611.5,50.7,611.4,50.3z M600,36.8c0.1,0.1,0.2,0.1,0.2,0.1h7.8c0.1,0,0.2,0,0.2-0.1c0.1-0.1,0.1-0.2,0.1-0.3 l-4.1-18.4c0-0.2-0.1-0.3-0.2-0.3s-0.1,0.1-0.2,0.3l-4,18.4C599.9,36.7,600,36.8,600,36.8z"></path> <path class="st1" d="M646.4,6.7c0.1,0.1,0.2,0.3,0.2,0.5v6.2c0,0.2-0.1,0.4-0.2,0.5c-0.1,0.1-0.3,0.2-0.5,0.2h-9 c-0.2,0-0.3,0.1-0.3,0.3v35.6c0,0.2-0.1,0.4-0.2,0.5c-0.1,0.1-0.3,0.2-0.5,0.2H629c-0.2,0-0.4-0.1-0.5-0.2 c-0.1-0.1-0.2-0.3-0.2-0.5V14.6c0-0.2-0.1-0.3-0.3-0.3h-8.7c-0.2,0-0.4-0.1-0.5-0.2c-0.1-0.1-0.2-0.3-0.2-0.5V7.3 c0-0.2,0.1-0.4,0.2-0.5c0.1-0.1,0.3-0.2,0.5-0.2h26.6C646.1,6.5,646.2,6.6,646.4,6.7z"></path> <path class="st1" d="M668.8,50.3l-1.4-6.2c0-0.2-0.1-0.3-0.3-0.3h-11.1c-0.2,0-0.3,0.1-0.3,0.3l-1.4,6.2c-0.1,0.4-0.4,0.6-0.8,0.6 h-7.2c-0.5,0-0.7-0.3-0.6-0.8l10.6-43c0.1-0.4,0.4-0.6,0.8-0.6h8.6c0.4,0,0.7,0.2,0.8,0.6l10.6,43l0.1,0.3c0,0.4-0.2,0.6-0.7,0.6 h-7.2C669.2,51,668.9,50.7,668.8,50.3z M657.4,36.8c0.1,0.1,0.2,0.1,0.2,0.1h7.8c0.1,0,0.2,0,0.2-0.1c0.1-0.1,0.1-0.2,0.1-0.3 l-4.1-18.4c0-0.2-0.1-0.3-0.2-0.3s-0.1,0.1-0.2,0.3l-4,18.4C657.3,36.7,657.3,36.8,657.4,36.8z"></path> <path class="st1" d="M700.5,50.3l-6-17.5c-0.1-0.2-0.2-0.3-0.3-0.3h-3.7c-0.2,0-0.3,0.1-0.3,0.3v17.3c0,0.2-0.1,0.4-0.2,0.5 c-0.1,0.1-0.3,0.2-0.5,0.2h-6.9c-0.2,0-0.4-0.1-0.5-0.2c-0.1-0.1-0.2-0.3-0.2-0.5V7.3c0-0.2,0.1-0.4,0.2-0.5 c0.1-0.1,0.3-0.2,0.5-0.2H697c2.3,0,4.4,0.6,6.2,1.7c1.8,1.1,3.2,2.7,4.2,4.7c1,2,1.5,4.4,1.5,7c0,2.7-0.6,5.1-1.7,7 c-1.1,2-2.7,3.5-4.7,4.4c-0.2,0.1-0.3,0.2-0.2,0.4l6.7,18.2c0,0.1,0.1,0.2,0.1,0.3c0,0.4-0.2,0.6-0.7,0.6h-7.2 C700.9,51,700.6,50.7,700.5,50.3z M690.2,14.5v10.9c0,0.2,0.1,0.3,0.3,0.3h5.1c1.5,0,2.6-0.5,3.5-1.6c0.9-1,1.4-2.4,1.4-4.2 c0-1.8-0.5-3.2-1.4-4.2c-0.9-1-2.1-1.6-3.5-1.6h-5.1C690.3,14.2,690.2,14.3,690.2,14.5z"></path> </g> <polygon class="st1" points="456.3,109.2 490.3,0.3 531.6,0.3 503,97.9 553.6,97.9 549,117.9 415,117.9 409.5,104.6 362.3,104.6 355.6,117.9 315,117.9 373,28.6 385,69.2 375,83.2 405.6,83.2 378.3,0.3 421.6,0.3 "></polygon> <polygon class="st1" points="299.6,117.9 329,20.6 371,20.6 363,0.3 251.6,0.3 251.6,21.2 285.6,21.2 256.3,117.9 "></polygon> <polygon class="st1" points="53.6,117.9 83,20.6 124.3,20.6 119,0.3 5.6,0.3 0,21.2 39.6,21.2 10.3,117.9 "></polygon> <path class="st1" d="M155.7,41.9l-16.4,47.7c-1.5,4.4,1.8,8.9,6.4,8.9h31c0.9,0,1.7,0.6,2,1.5l4.7,15.1c0.4,1.4-0.6,2.7-2,2.7h-65 c-13.2,0-22.6-12.9-18.4-25.4l23.6-77.3c2.8-8.5,10.8-14.6,19.8-14.6h0c2.2,0,8.1-0.3,8.8,1.8l5.3,21 C157.8,29.3,157.8,35.9,155.7,41.9z"></path> <path class="st1" d="M191.8,76.5l16.4-47.7c1.5-4.4-1.8-8.9-6.4-8.9h-31c-0.9,0-1.7-0.6-2-1.5l-4.7-15.1c-0.4-1.4,0.6-2.7,2-2.7h65 c13.2,0,22.6,12.9,18.4,25.4l-23.6,77.3c-2.8,8.5-10.8,14.6-19.8,14.6h0c-2.2,0-8.1,0.3-8.8-1.8l-5.3-21 C189.8,89.2,189.7,82.6,191.8,76.5z"></path> </g> <g> </g> <g> </g> <g> </g> <g> </g> <g> </g> <g> </g> <g> </g> <g> </g> <g> </g> <g> </g> <g> </g> <g> </g> <g> </g> <g> </g> <g> </g> </svg> 